<?xml version="1.0" standalone="no"?>
<!DOCTYPE svg PUBLIC "-//W3C//DTD SVG 20010904//EN"
 "http://www.w3.org/TR/2001/REC-SVG-20010904/DTD/svg10.dtd">
<svg version="1.0" xmlns="http://www.w3.org/2000/svg"
 width="512.000000pt" height="512.000000pt" viewBox="0 0 512.000000 512.000000"
 preserveAspectRatio="xMidYMid meet">

<g transform="translate(0.000000,512.000000) scale(0.100000,-0.100000)"
fill="#000000" stroke="none">
<path d="M3213 3743 c-204 -362 -374 -674 -378 -693 -4 -22 -1 -52 8 -77 15
-45 1508 -2632 1518 -2633 12 0 739 1301 747 1337 4 21 5 54 2 73 -5 31 -1482
2602 -1515 2638 -9 10 -90 -127 -382 -645z"/>
<path d="M2234 2376 c-44 -19 -64 -53 -64 -106 0 -91 45 -117 193 -112 l97 3
0 115 0 114 -97 0 c-60 -1 -110 -6 -129 -14z m105 -62 c12 -15 21 -34 21 -44
0 -28 -39 -70 -65 -70 -37 0 -55 10 -70 41 -38 73 63 138 114 73z"/>
<path d="M1423 1448 c-84 -145 -265 -456 -402 -693 l-248 -430 706 -3 c502 -2
718 1 747 9 60 16 93 51 159 169 32 58 191 344 355 635 163 292 302 540 309
552 l11 23 -742 0 -743 0 -152 -262z"/>
</g>
</svg>
